G75*
G70*
%OFA0B0*%
%FSLAX24Y24*%
%IPPOS*%
%LPD*%
%AMOC8*
5,1,8,0,0,1.08239X$1,22.5*
%
%ADD10C,0.0595*%
%ADD11R,0.0671X0.0237*%
%ADD12R,0.0474X0.0513*%
%ADD13R,0.0356X0.0415*%
%ADD14C,0.0640*%
%ADD15C,0.1380*%
%ADD16C,0.0480*%
D10*
X002429Y006759D03*
X002429Y007546D03*
X002429Y008333D03*
X002429Y009121D03*
X002429Y009908D03*
X002429Y010696D03*
X002429Y011483D03*
X002429Y012270D03*
X002429Y013058D03*
X002429Y013845D03*
X011090Y013845D03*
X011090Y013058D03*
X011090Y012270D03*
X011090Y011483D03*
X011090Y010696D03*
X011090Y009908D03*
X011090Y009121D03*
X011090Y008333D03*
X011090Y007546D03*
X011090Y006759D03*
D11*
X008187Y008139D03*
X008187Y008394D03*
X008187Y008650D03*
X008187Y008906D03*
X008187Y009162D03*
X008187Y009418D03*
X008187Y009674D03*
X008187Y009930D03*
X008187Y010186D03*
X008187Y010442D03*
X008187Y010698D03*
X008187Y010953D03*
X008187Y011209D03*
X008187Y011465D03*
X005332Y011465D03*
X005332Y011209D03*
X005332Y010953D03*
X005332Y010698D03*
X005332Y010442D03*
X005332Y010186D03*
X005332Y009930D03*
X005332Y009674D03*
X005332Y009418D03*
X005332Y009162D03*
X005332Y008906D03*
X005332Y008650D03*
X005332Y008394D03*
X005332Y008139D03*
D12*
X009760Y008137D03*
X009760Y007467D03*
X009760Y010467D03*
X009760Y011137D03*
D13*
X009760Y009656D03*
X009760Y009026D03*
D14*
X007252Y005832D03*
X007252Y005052D03*
X006268Y005052D03*
X006268Y005832D03*
D15*
X004390Y003982D03*
X009130Y003982D03*
D16*
X007560Y009782D03*
X008520Y011862D03*
X010280Y010742D03*
M02*
