%
M48
M72
T01C0.0240
T02C0.0315
T03C0.0360
T04C0.0900
%
T01
X5956Y9782
X4996Y11862
X3236Y10742
T02
X2425Y10696
X2425Y11483
X2425Y12270
X2425Y13058
X2425Y13845
X2425Y9908
X2425Y9121
X2425Y8333
X2425Y7546
X2425Y6759
X11087Y6759
X11087Y7546
X11087Y8333
X11087Y9121
X11087Y9908
X11087Y10696
X11087Y11483
X11087Y12270
X11087Y13058
X11087Y13845
T03
X7248Y5832
X7248Y5052
X6264Y5052
X6264Y5832
T04
X4386Y3982
X9126Y3982
M30
