G75*
G70*
%OFA0B0*%
%FSLAX24Y24*%
%IPPOS*%
%LPD*%
%AMOC8*
5,1,8,0,0,1.08239X$1,22.5*
%
%ADD10C,0.0515*%
%ADD11C,0.0560*%
%ADD12C,0.1300*%
%ADD13C,0.0100*%
%ADD14C,0.0400*%
D10*
X002425Y006759D03*
X002425Y007546D03*
X002425Y008333D03*
X002425Y009121D03*
X002425Y009908D03*
X002425Y010696D03*
X002425Y011483D03*
X002425Y012270D03*
X002425Y013058D03*
X002425Y013845D03*
X011087Y013845D03*
X011087Y013058D03*
X011087Y012270D03*
X011087Y011483D03*
X011087Y010696D03*
X011087Y009908D03*
X011087Y009121D03*
X011087Y008333D03*
X011087Y007546D03*
X011087Y006759D03*
D11*
X007248Y005832D03*
X007248Y005052D03*
X006264Y005052D03*
X006264Y005832D03*
D12*
X004386Y003982D03*
X009126Y003982D03*
D13*
X002516Y005142D02*
X002516Y006502D01*
X002425Y006759D01*
X002516Y005142D02*
X005556Y005142D01*
X005556Y009382D01*
X005956Y009782D01*
X004996Y011862D02*
X002596Y014262D01*
X002036Y014262D01*
X002036Y013622D01*
X002356Y013302D01*
X002425Y013058D01*
X002836Y013302D02*
X002516Y013622D01*
X002425Y013845D01*
X002836Y013302D02*
X002836Y011142D01*
X003236Y010742D01*
X003396Y010662D01*
X010676Y010662D01*
X010676Y009542D01*
X010916Y009302D01*
X011087Y009121D01*
X006264Y005052D02*
X006036Y005142D01*
X005556Y005142D01*
D14*
X005956Y009782D03*
X004996Y011862D03*
X003236Y010742D03*
M02*
