G75*
G70*
%OFA0B0*%
%FSLAX24Y24*%
%IPPOS*%
%LPD*%
%AMOC8*
5,1,8,0,0,1.08239X$1,22.5*
%
%ADD10C,0.0160*%
%ADD11C,0.0040*%
%ADD12C,0.0030*%
%ADD13C,0.0080*%
%ADD14C,0.0348*%
%ADD15R,0.0079X0.0157*%
%ADD16C,0.0020*%
%ADD17C,0.0028*%
%ADD18C,0.0010*%
%ADD19C,0.0050*%
D10*
X006072Y013882D02*
X006993Y013882D01*
X006993Y015723D01*
X006072Y015723D01*
X005765Y015416D01*
X005765Y015110D01*
X006072Y014803D01*
X006993Y014803D01*
X007607Y014189D02*
X007607Y015723D01*
X008834Y015723D02*
X008834Y014189D01*
X008527Y013882D01*
X007914Y013882D01*
X007607Y014189D01*
X006072Y013882D02*
X005765Y014189D01*
X005765Y014496D01*
X006072Y014803D01*
X009448Y013882D02*
X009448Y015723D01*
X010676Y015723D02*
X009448Y013882D01*
X010676Y013882D02*
X010676Y015723D01*
D11*
X007771Y012438D02*
X007618Y012438D01*
X007695Y012438D02*
X007695Y011978D01*
X007771Y011978D02*
X007618Y011978D01*
X007464Y012054D02*
X007388Y011978D01*
X007234Y011978D01*
X007158Y012054D01*
X007004Y011978D02*
X006697Y011978D01*
X006851Y011978D02*
X006851Y012438D01*
X007004Y012285D01*
X007158Y012361D02*
X007234Y012438D01*
X007388Y012438D01*
X007464Y012361D01*
X007464Y012054D01*
X007004Y010897D02*
X006544Y010897D01*
X006544Y011204D01*
X006544Y010743D02*
X006697Y010590D01*
X006697Y010666D02*
X006697Y010436D01*
X006544Y010436D02*
X007004Y010436D01*
X007004Y010666D01*
X006927Y010743D01*
X006774Y010743D01*
X006697Y010666D01*
X006544Y010283D02*
X006544Y009976D01*
X006851Y010283D01*
X006927Y010283D01*
X007004Y010206D01*
X007004Y010053D01*
X006927Y009976D01*
X006927Y009823D02*
X006851Y009823D01*
X006774Y009746D01*
X006697Y009823D01*
X006620Y009823D01*
X006544Y009746D01*
X006544Y009592D01*
X006620Y009516D01*
X006544Y009362D02*
X006544Y009055D01*
X006851Y009362D01*
X006927Y009362D01*
X007004Y009285D01*
X007004Y009132D01*
X006927Y009055D01*
X007004Y008902D02*
X007004Y008595D01*
X007004Y008748D02*
X006544Y008748D01*
X006774Y008288D02*
X006774Y008135D01*
X007004Y008135D02*
X007004Y008441D01*
X007004Y008135D02*
X006544Y008135D01*
X006630Y007129D02*
X006860Y007129D01*
X006937Y007052D01*
X006937Y006899D01*
X006860Y006822D01*
X006630Y006822D01*
X006476Y006899D02*
X006476Y007052D01*
X006400Y007129D01*
X006246Y007129D01*
X006169Y007052D01*
X006169Y006899D01*
X006246Y006822D01*
X006400Y006822D01*
X006476Y006899D01*
X006016Y006822D02*
X006016Y007129D01*
X005939Y007129D01*
X005863Y007052D01*
X005786Y007129D01*
X005709Y007052D01*
X005709Y006822D01*
X005863Y006822D02*
X005863Y007052D01*
X007090Y006899D02*
X007090Y006822D01*
X007167Y006822D01*
X007167Y006899D01*
X007090Y006899D01*
X007320Y006899D02*
X007397Y006822D01*
X007627Y006822D01*
X007551Y006975D02*
X007627Y007052D01*
X007551Y007129D01*
X007320Y007129D01*
X007397Y006975D02*
X007551Y006975D01*
X007397Y006975D02*
X007320Y006899D01*
X007781Y006899D02*
X007781Y007052D01*
X007857Y007129D01*
X008088Y007129D01*
X008088Y007282D02*
X008088Y006822D01*
X007857Y006822D01*
X007781Y006899D01*
X008241Y006975D02*
X008471Y006975D01*
X008548Y006899D01*
X008471Y006822D01*
X008241Y006822D01*
X008241Y007052D01*
X008318Y007129D01*
X008471Y007129D01*
X008778Y007282D02*
X008778Y006822D01*
X008855Y006822D02*
X008701Y006822D01*
X009008Y006899D02*
X009008Y007052D01*
X009085Y007129D01*
X009315Y007129D01*
X009315Y007282D02*
X009315Y006822D01*
X009085Y006822D01*
X009008Y006899D01*
X008855Y007282D02*
X008778Y007282D01*
X009469Y007129D02*
X009469Y006822D01*
X009699Y006822D01*
X009776Y006899D01*
X009776Y007129D01*
X009929Y007052D02*
X009929Y006822D01*
X009929Y007052D02*
X010006Y007129D01*
X010236Y007129D01*
X010236Y006822D01*
X007004Y009592D02*
X007004Y009746D01*
X006927Y009823D01*
X006774Y009746D02*
X006774Y009669D01*
X006927Y009516D02*
X007004Y009592D01*
X004536Y010549D02*
X004460Y010472D01*
X004153Y010472D01*
X004076Y010549D01*
X004076Y010702D01*
X004153Y010779D01*
X004076Y010932D02*
X004076Y011239D01*
X004076Y011086D02*
X004536Y011086D01*
X004383Y010932D01*
X004460Y010779D02*
X004536Y010702D01*
X004536Y010549D01*
X003360Y008018D02*
X003436Y007942D01*
X003436Y007788D01*
X003360Y007711D01*
X003360Y007558D02*
X003436Y007481D01*
X003436Y007328D01*
X003360Y007251D01*
X003053Y007251D01*
X002976Y007328D01*
X002976Y007481D01*
X003053Y007558D01*
X002976Y007711D02*
X003283Y008018D01*
X003360Y008018D01*
X002976Y008018D02*
X002976Y007711D01*
X003778Y015322D02*
X003701Y015399D01*
X003778Y015475D01*
X003932Y015475D01*
X004008Y015552D01*
X003932Y015629D01*
X003701Y015629D01*
X003778Y015322D02*
X004008Y015322D01*
X004162Y015399D02*
X004162Y015552D01*
X004239Y015629D01*
X004469Y015629D01*
X004469Y015782D02*
X004469Y015322D01*
X004239Y015322D01*
X004162Y015399D01*
X004622Y015475D02*
X004852Y015475D01*
X004929Y015399D01*
X004852Y015322D01*
X004622Y015322D01*
X004622Y015552D01*
X004699Y015629D01*
X004852Y015629D01*
X005082Y015322D02*
X005236Y015322D01*
X005159Y015322D02*
X005159Y015782D01*
X005236Y015782D01*
D12*
X005083Y013187D02*
X005083Y012817D01*
X005269Y012817D01*
X005330Y012879D01*
X005330Y013002D01*
X005269Y013064D01*
X005083Y013064D01*
X004962Y013002D02*
X004962Y012879D01*
X004900Y012817D01*
X004777Y012817D01*
X004715Y012879D01*
X004715Y013002D01*
X004777Y013064D01*
X004900Y013064D01*
X004962Y013002D01*
X004594Y013064D02*
X004594Y012817D01*
X004594Y013064D02*
X004408Y013064D01*
X004347Y013002D01*
X004347Y012817D01*
X004225Y012879D02*
X004164Y012817D01*
X003978Y012817D01*
X003978Y012755D02*
X003978Y013064D01*
X004164Y013064D01*
X004225Y013002D01*
X004225Y012879D01*
X004102Y012693D02*
X004040Y012693D01*
X003978Y012755D01*
X003857Y012817D02*
X003734Y012817D01*
X003795Y012817D02*
X003795Y013187D01*
X003857Y013187D01*
X003611Y013002D02*
X003611Y012879D01*
X003550Y012817D01*
X003426Y012817D01*
X003365Y012940D02*
X003611Y012940D01*
X003611Y013002D02*
X003550Y013064D01*
X003426Y013064D01*
X003365Y013002D01*
X003365Y012940D01*
X005820Y012940D02*
X006067Y012940D01*
X006067Y012879D02*
X006067Y013002D01*
X006005Y013064D01*
X005882Y013064D01*
X005820Y013002D01*
X005820Y012940D01*
X005882Y012817D02*
X006005Y012817D01*
X006067Y012879D01*
X006188Y012940D02*
X006188Y013002D01*
X006250Y013064D01*
X006373Y013064D01*
X006435Y013002D01*
X006435Y012879D01*
X006373Y012817D01*
X006250Y012817D01*
X006188Y012940D02*
X006435Y012940D01*
X006557Y012879D02*
X006618Y012817D01*
X006803Y012817D01*
X006803Y013187D01*
X006803Y013064D02*
X006618Y013064D01*
X006557Y013002D01*
X006557Y012879D01*
X006925Y012817D02*
X007110Y012817D01*
X007172Y012879D01*
X007172Y013002D01*
X007110Y013064D01*
X006925Y013064D01*
X006925Y012755D01*
X006987Y012693D01*
X007048Y012693D01*
X007294Y012817D02*
X007417Y012817D01*
X007356Y012817D02*
X007356Y013064D01*
X007417Y013064D01*
X007539Y013064D02*
X007786Y012817D01*
X007539Y012817D01*
X007539Y013064D02*
X007786Y013064D01*
X007356Y013187D02*
X007356Y013249D01*
X008275Y013002D02*
X008275Y012879D01*
X008337Y012817D01*
X008460Y012817D01*
X008522Y012879D01*
X008522Y013002D01*
X008460Y013064D01*
X008337Y013064D01*
X008275Y013002D01*
X008644Y013064D02*
X008768Y013064D01*
X008706Y013125D02*
X008706Y012879D01*
X008644Y012817D01*
X009257Y012879D02*
X009319Y012817D01*
X009504Y012817D01*
X009504Y013187D01*
X009319Y013187D01*
X009257Y013125D01*
X009257Y013064D01*
X009319Y013002D01*
X009504Y013002D01*
X009626Y012940D02*
X009626Y012879D01*
X009687Y012817D01*
X009811Y012817D01*
X009873Y012879D01*
X009994Y012879D02*
X009994Y013187D01*
X009873Y013125D02*
X009873Y013064D01*
X009811Y013002D01*
X009687Y013002D01*
X009626Y012940D01*
X009626Y013125D02*
X009687Y013187D01*
X009811Y013187D01*
X009873Y013125D01*
X009994Y012879D02*
X010056Y012817D01*
X010179Y012817D01*
X010241Y012879D01*
X010241Y013187D01*
X009319Y013002D02*
X009257Y012940D01*
X009257Y012879D01*
D13*
X007780Y011810D02*
X005732Y011810D01*
X005732Y007794D01*
X007780Y007794D01*
X007780Y011810D01*
D14*
X007396Y011455D03*
D15*
X003756Y009341D03*
D16*
X004026Y009495D02*
X004026Y009642D01*
X004026Y009716D02*
X004026Y009863D01*
X004026Y009789D02*
X004246Y009789D01*
X004173Y009716D01*
X004246Y009495D02*
X004026Y009495D01*
D17*
X003913Y009617D02*
X003913Y008987D01*
X003598Y008987D02*
X003598Y009617D01*
D18*
X007761Y005394D02*
X007911Y005394D01*
X007836Y005394D02*
X007836Y005294D01*
X007761Y005294D02*
X007911Y005294D01*
X007911Y005246D02*
X007911Y005146D01*
X007911Y005196D02*
X007761Y005196D01*
X007836Y005099D02*
X007811Y005074D01*
X007811Y004999D01*
X007811Y004952D02*
X007786Y004952D01*
X007761Y004927D01*
X007761Y004852D01*
X007911Y004852D01*
X007911Y004927D01*
X007886Y004952D01*
X007861Y004952D01*
X007836Y004927D01*
X007836Y004852D01*
X007811Y004804D02*
X007786Y004804D01*
X007761Y004779D01*
X007761Y004729D01*
X007786Y004704D01*
X007786Y004657D02*
X007911Y004657D01*
X007886Y004704D02*
X007861Y004704D01*
X007836Y004729D01*
X007836Y004779D01*
X007811Y004804D01*
X007886Y004804D02*
X007911Y004779D01*
X007911Y004729D01*
X007886Y004704D01*
X007786Y004657D02*
X007761Y004632D01*
X007761Y004582D01*
X007786Y004557D01*
X007911Y004557D01*
X007836Y004927D02*
X007811Y004952D01*
X007761Y004999D02*
X007911Y004999D01*
X007911Y005074D01*
X007886Y005099D01*
X007836Y005099D01*
X008261Y004804D02*
X008261Y004704D01*
X008261Y004657D02*
X008411Y004557D01*
X008411Y004657D02*
X008261Y004557D01*
X008361Y004704D02*
X008411Y004754D01*
X008261Y004754D01*
D19*
X004394Y003162D02*
X004394Y001666D01*
X004394Y004816D02*
X004394Y006351D01*
X009118Y006351D01*
X009118Y004816D01*
X009118Y003162D02*
X009118Y001666D01*
M02*
